IKResults
version=1
nRows=14
nColumns=40
inDegrees=yes

Units are S.I. units (second, meters, Newtons, ...)
Angles are in degrees.

endheader
time	pelvis_tilt	pelvis_list	pelvis_rotation	pelvis_tx	pelvis_ty	pelvis_tz	hip_flexion_r	hip_adduction_r	hip_rotation_r	knee_angle_r	knee_angle_r_beta	ankle_angle_r	subtalar_angle_r	mtp_angle_r	hip_flexion_l	hip_adduction_l	hip_rotation_l	knee_angle_l	knee_angle_l_beta	ankle_angle_l	subtalar_angle_l	mtp_angle_l	lumbar_extension	lumbar_bending	lumbar_rotation	arm_flex_r	arm_add_r	arm_rot_r	elbow_flex_r	pro_sup_r	wrist_flex_r	wrist_dev_r	arm_flex_l	arm_add_l	arm_rot_l	elbow_flex_l	pro_sup_l	wrist_flex_l	wrist_dev_l
      0.00000000	     14.61138351	      1.11327876	      0.45959011	     -1.14112863	      0.94417927	     -1.41904562	    -19.77458422	      4.71659114	     -3.88741607	    -15.70461877	     -0.27409731	     13.87005007	    -10.18755697	     -3.08657592	      7.63366023	      2.61419780	      6.84999077	    -42.35818599	     -0.73928981	     12.71011179	     16.93115118	      5.32870103	    -23.11737171	     -1.16511676	      2.61823059	     -2.62636076	    -13.99612769	      0.11298870	     46.49804421	     89.95437384	      0.00000000	      0.00000000	     -1.25744365	      7.34015918	     14.44317088	     18.32142101	     89.95437384	      0.00000000	      0.00000000
      0.01000000	     14.54842518	      1.26283369	     -0.07547916	     -1.12829528	      0.94207845	     -1.41948251	    -20.51245932	      4.35706813	     -3.32674909	    -15.83524986	     -0.27637725	     14.33543877	    -10.28102302	     -3.19999467	      8.39752779	      2.50088085	      7.57022037	    -39.89861435	     -0.69636219	     12.70538618	     16.39111116	      5.16384808	    -23.15675676	     -1.57916391	      2.87203261	     -2.27982098	    -14.14272411	     -0.00389420	     47.95592639	     89.95437384	      0.00000000	      0.00000000	     -1.73278059	      7.27727863	     14.53802104	     16.63449186	     89.95437384	      0.00000000	      0.00000000
      0.02000000	     14.26907772	      1.35293744	     -0.35156859	     -1.11541124	      0.93944673	     -1.42021116	    -21.00240781	      4.12849366	     -3.02099230	    -16.05011372	     -0.28012733	     14.88933646	    -10.45016169	     -3.26239819	      9.43010792	      2.46127368	      8.12641649	    -37.47332109	     -0.65403283	     12.56889142	     15.15490628	      4.83360041	    -22.93014279	     -1.84492840	      2.88701655	     -1.92571239	    -14.29131997	      0.01020781	     49.23622974	     89.95437384	      0.00000000	      0.00000000	     -2.30381113	      7.25159514	     14.41043761	     15.11633667	     89.95437384	      0.00000000	      0.00000000
      0.03000000	     14.24656837	      1.50117767	     -0.86358630	     -1.10228809	      0.93716273	     -1.42063824	    -21.81138306	      3.73389703	     -2.60999780	    -16.19178551	     -0.28259997	     15.21211625	    -10.65259495	     -3.24125657	      9.94475445	      2.45423855	      9.19573533	    -34.71475893	     -0.60588684	     12.02988108	     13.42639334	      4.04664887	    -22.97637000	     -2.24969183	      3.12768616	     -1.63540471	    -14.39321094	     -0.12448716	     50.55508231	     89.95437384	      0.00000000	      0.00000000	     -2.97848879	      7.21693157	     14.30582008	     13.98422883	     89.95437384	      0.00000000	      0.00000000
      0.04000000	     14.01811471	      1.55699463	     -1.21335999	     -1.08951553	      0.93442080	     -1.42129028	    -22.31602210	      3.50684604	     -2.25703913	    -16.46148595	     -0.28730713	     15.68007356	    -10.91697726	     -3.20999857	     10.74712751	      2.49626622	     10.01013339	    -32.07749536	     -0.55985791	     11.38939566	     11.53923308	      3.23566963	    -22.85460804	     -2.49604854	      3.23659088	     -1.28628391	    -14.52929335	     -0.16294979	     51.76478353	     89.95437384	      0.00000000	      0.00000000	     -3.66348170	      7.19157302	     13.99934570	     13.02844336	     89.95437384	      0.00000000	      0.00000000
      0.05000000	     14.02858850	      1.62363794	     -1.42855911	     -1.07595908	      0.93198048	     -1.42194917	    -23.26038888	      3.32865939	     -2.04243381	    -16.47172426	     -0.28748582	     15.79553219	    -11.21895404	     -3.09630962	     11.11953951	      2.59110223	     11.10003470	    -29.35360159	     -0.51231699	     10.48264289	      8.96650962	      2.01599014	    -22.88906257	     -2.72637500	      3.25618902	     -1.05874248	    -14.55085228	     -0.35133197	     52.88456032	     89.95437384	      0.00000000	      0.00000000	     -4.47421885	      7.20359164	     13.57076085	     12.37190802	     89.95437384	      0.00000000	      0.00000000
      0.06000000	     13.97802344	      1.59188394	     -1.59728933	     -1.06257414	      0.92940139	     -1.42257614	    -24.04025695	      3.28714279	     -1.93647268	    -16.68715138	     -0.29124573	     15.96366296	    -11.48892752	     -2.99105757	     11.61604975	      2.85303778	     12.36185964	    -26.90048750	     -0.46950208	      9.34861052	      6.11338653	      0.53511144	    -22.89163978	     -2.84457887	      3.27260558	     -0.84076805	    -14.59595095	     -0.49584930	     53.94342491	     89.95437384	      0.00000000	      0.00000000	     -5.32537589	      7.24601548	     12.75863787	     11.91278362	     89.95437384	      0.00000000	      0.00000000
      0.07000000	     13.99827822	      1.66822297	     -1.77816212	     -1.04875515	      0.92699471	     -1.42337653	    -24.88900036	      3.07959363	     -2.28100866	    -16.96774186	     -0.29614296	     16.07520778	    -11.67666195	     -2.89323730	     11.88878748	      2.90617202	     13.58322910	    -24.42206490	     -0.42624544	      8.13740948	      3.48507862	     -0.67551966	    -22.91946994	     -3.06312004	      3.32010041	     -0.70120252	    -14.62288261	     -0.67468511	     54.87907417	     89.95437384	      0.00000000	      0.00000000	     -6.16501994	      7.21446970	     12.28520658	     11.66844201	     89.95437384	      0.00000000	      0.00000000
      0.08000000	     14.03507106	      1.71789158	     -2.03720735	     -1.03492968	      0.92473860	     -1.42411916	    -25.69510844	      2.84767089	     -2.60298489	    -17.35386786	     -0.30288213	     16.06766767	    -11.77108193	     -2.84316376	     12.11098497	      3.00429019	     15.04817293	    -22.19430846	     -0.38736376	      7.04958147	      0.72661935	     -1.74464229	    -22.97148779	     -3.27625718	      3.47640680	     -0.61725941	    -14.67771317	     -0.85680291	     55.77587922	     89.95437384	      0.00000000	      0.00000000	     -7.00495579	      7.21749555	     11.51581387	     11.53825583	     89.95437384	      0.00000000	      0.00000000
      0.09000000	     13.70100823	      1.52604951	     -1.83354481	     -1.02080554	      0.92196371	     -1.42552441	    -26.17062007	      3.07019765	     -3.07394908	    -17.69113967	     -0.30876864	     16.07693045	    -11.85303769	     -2.81948679	     12.96113940	      3.13133128	     15.46978439	    -20.66788146	     -0.36072258	      7.05494175	     -0.12982252	     -1.90453933	    -22.58347866	     -3.06170560	      3.33603536	     -0.60960466	    -14.75134531	     -0.96329890	     56.43681773	     89.95437384	      0.00000000	      0.00000000	     -7.80578497	      7.14997940	     11.34993352	     11.37584660	     89.95437384	      0.00000000	      0.00000000
      0.10000000	     14.10223060	      1.87584268	     -2.33938508	     -1.00554390	      0.92048646	     -1.42640092	    -27.27425467	      2.26455462	     -3.92735667	    -18.38905197	     -0.32094950	     15.94492264	    -11.14158710	     -3.11756702	     12.57731670	      3.11333002	     18.62742948	    -19.00050268	     -0.33162133	      5.88938722	     -5.08479977	     -4.13882289	    -22.82385919	     -3.62766225	      3.79110389	     -0.89532922	    -14.74427709	     -1.42965147	     57.19376136	     89.95437384	      0.00000000	      0.00000000	     -8.76324636	      7.27011364	      9.43237720	     11.59412160	     89.95437384	      0.00000000	      0.00000000
      0.11000000	     13.81017686	      1.80748620	     -2.25780164	     -0.99120255	      0.91823332	     -1.42795344	    -27.60780661	      2.29583669	     -4.18411469	    -19.02744265	     -0.33209152	     15.70087542	    -11.25877086	     -3.07186455	     13.29812663	      3.05720184	     19.19509268	    -18.16065299	     -0.31696319	      6.23095817	     -5.29853520	     -4.19122283	    -22.47150259	     -3.55770074	      3.73582519	     -0.93924422	    -14.81111822	     -1.53293832	     57.60257907	     89.95437384	      0.00000000	      0.00000000	     -9.43079365	      7.18511907	      9.35885896	     11.48278616	     89.95437384	      0.00000000	      0.00000000
      0.12000000	     13.63913221	      2.07161120	     -2.72277943	     -0.97613366	      0.91645135	     -1.42911786	    -27.70912799	      1.62338500	     -4.59615457	    -20.38380577	     -0.35576452	     14.98210586	    -11.74541062	     -2.94581789	     13.42200884	      2.64481057	     20.01709970	    -17.04112018	     -0.29742366	      6.72490049	     -6.28631937	     -4.41828091	    -22.09081221	     -3.99586615	      4.19725636	     -1.21457145	    -14.85886524	     -1.75644950	     57.85792265	     89.95437384	      0.00000000	      0.00000000	    -10.09898890	      7.11278030	      9.07500957	     11.47690887	     89.95437384	      0.00000000	      0.00000000
      0.13000000	     13.64965480	      2.50734830	     -3.16535982	     -0.96039003	      0.91520505	     -1.43040851	    -28.08959391	      0.79126026	     -4.83575820	    -21.60150961	     -0.37701747	     14.24240347	    -12.04654556	     -2.82657836	     13.31302140	      2.11011790	     21.23211550	    -16.40354859	     -0.28629593	      6.74149581	     -6.95999160	     -4.63239384	    -21.82801757	     -4.59603773	      4.52194729	     -1.53304086	    -14.80229973	     -2.01830676	     57.94435636	     89.95437384	      0.00000000	      0.00000000	    -10.75699165	      7.10815576	      8.56929001	     11.35023654	     89.95437384	      0.00000000	      0.00000000
